PathFileType	4	(X/Y/Z)	RBDS028\RBDS028runT45.trc
DataRate	CameraRate	NumFrames	NumMarkers	Units	OrigDataRate	OrigDataStartFrame	OrigNumFrames
150.000000	150.000000	4	33	mm	150.000000	2812	4500
Frame#	Time	L.ASIS			L.Heel.Bottom			L.Heel.Lateral			L.Heel.Top			L.Iliac.Crest			L.MT1			L.MT5			L.PSIS			L.Shank.Bottom.Lateral			L.Shank.Bottom.Medial			L.Shank.Top.Lateral			L.Shank.Top.Medial			L.Thigh.Bottom.Lateral			L.Thigh.Bottom.Medial			L.Thigh.Top.Lateral			L.Thigh.Top.Medial			R.ASIS			R.ASY			R.Heel.Bottom			R.Heel.Lateral			R.Heel.Top			R.Iliac.Crest			R.MT1			R.MT5			R.PSIS			R.Shank.Bottom.Lateral			R.Shank.Bottom.Medial			R.Shank.Top.Lateral			R.Shank.Top.Medial			R.Thigh.Bottom.Lateral			R.Thigh.Bottom.Medial			R.Thigh.Top.Lateral			R.Thigh.Top.Medial			
		X1	Y1	Z1	X2	Y2	Z2	X3	Y3	Z3	X4	Y4	Z4	X5	Y5	Z5	X6	Y6	Z6	X7	Y7	Z7	X8	Y8	Z8	X9	Y9	Z9	X10	Y10	Z10	X11	Y11	Z11	X12	Y12	Z12	X13	Y13	Z13	X14	Y14	Z14	X15	Y15	Z15	X16	Y16	Z16	X17	Y17	Z17	X18	Y18	Z18	X19	Y19	Z19	X20	Y20	Z20	X21	Y21	Z21	X22	Y22	Z22	X23	Y23	Z23	X24	Y24	Z24	X25	Y25	Z25	X26	Y26	Z26	X27	Y27	Z27	X28	Y28	Z28	X29	Y29	Z29	X30	Y30	Z30	X31	Y31	Z31	X32	Y32	Z32	X33	Y33	Z33	

2813	18.74666666666667	1898.371251346774	836.4246408772771	875.696960110832	1627.702279047768	44.60942502562764	989.2677847528659	1657.238771566883	60.25985881658769	945.2946008868576	1644.308563138042	86.9960424005602	991.5468047018288	1816.310900296658	863.814637413163	864.0020597063452	1848.689901935353	33.49830267605692	1022.28396351681	1803.867809638323	34.35211326986051	914.0604173971128	1756.364719607541	841.5270128772137	976.6519042043083	1750.779837510515	147.9719680820967	922.6121776121929	1715.852325103363	174.3567615199565	949.9061790993269	1779.05613987286	215.9294646519917	888.7535229534288	1751.224444331695	246.4766267137775	922.9428670858028	1901.795835661162	498.7327512045411	831.7478068525317	1842.005251801556	484.82852046572	870.4982753127562	1871.520755495953	604.7793122130034	824.3368027994724	1815.402674359261	590.8661037788435	862.80028355763	1930.435847793009	825.3374501749389	1115.801875561794	1722.757546111071	260.2981966368982	1060.024632613977	1653.307849469964	432.6543549028686	1033.162308321898	1672.844848426874	407.6360835777986	1079.059970067497	1698.260464212195	426.5260183473699	1036.449889061597	1870.71311790747	875.397852671748	1144.00559712969	1685.757596993951	216.0001103110284	1011.420851138795	1668.24359417236	257.6585045165311	1117.531962348958	1771.745310497894	838.2683659906227	1063.954915936882	1785.897692592681	386.2927812539447	1110.196608799052	1784.610042112197	425.524080699566	1071.329135949649	1857.349601767899	415.6464349894466	1135.635930550613	1855.788772809025	452.2367202950163	1096.457209573581	2027.481258532092	518.5745977125862	1186.19166657857	1980.70013714148	484.0186613286363	1145.077997116672	1962.127622234053	608.0112799536357	1184.55558120044	1914.729007686843	572.3643557395834	1150.766906169378	
2814	18.75333333333333	1898.703673132421	836.7099978785578	875.228961624623	1598.291954866734	50.05687909866785	990.0338488922634	1628.061189192377	64.44068224961768	945.6706803395909	1615.838404014342	92.12026092818715	991.603860560435	1815.35800081602	865.6520240434141	863.7483156037605	1818.240215363927	33.5633722190699	1022.001285052613	1773.332463419427	34.64064063794588	914.2109106744464	1756.269513673734	843.1468264954042	975.3054811921946	1723.288884525997	152.021735201165	922.5424973160607	1689.603990306028	179.2055392813239	950.3874548569834	1753.286700465315	219.1463109166456	888.7937107053557	1726.868073195501	250.2834634864547	923.4432065307993	1887.641251994836	498.1009676378472	831.3001441848752	1826.726351961425	486.8870799077232	869.1458672607901	1862.41665343777	605.4076294408172	823.903005183486	1805.504348598332	594.0693682918156	862.0830574630641	1929.190704669867	826.9819703876914	1115.903601855071	1750.497916991211	247.4423459768406	1061.21619155556	1667.678315388242	414.2161500137639	1034.674048508696	1689.353035668257	390.5085884050234	1080.351512963667	1713.082773400017	411.5723133956747	1037.558612298478	1866.954661532786	876.2167438417595	1143.573226092654	1716.786205954624	200.4146282471873	1012.748374779787	1696.399186882282	240.2078362949648	1118.882293152875	1770.954202224986	839.3855494801828	1062.416469365463	1804.648163311397	377.5046573919485	1110.495025918299	1800.272534885521	416.6500790553627	1071.713154700596	1874.118124014585	411.7538452733758	1135.120203348488	1869.613498549283	448.2730129554763	1096.05056615315	2039.299940054427	527.4757263195473	1184.437425505498	1993.99968267522	490.7592836399847	1143.452926796457	1969.557909421726	613.6627671052992	1183.349685765813	1923.598417905355	575.7210477066535	1149.921216308131	
2815	18.76	1899.455553673016	837.1587692864157	874.6518953681384	1569.302809980149	56.62714086205771	990.9311027974784	1599.321802401465	69.50288167160885	946.1773255085592	1588.019845300627	98.22697773996211	991.7856120161465	1815.44366685735	868.202607230015	863.2384032459357	1787.874763468296	33.37612571699932	1021.75790247883	1742.865107927057	34.89890331070362	914.3483355242611	1756.614382842275	845.0560211138127	973.7297205381747	1695.974727193921	156.9464095073925	922.5577539587007	1663.64719415047	184.690708657618	951.1905398880865	1727.390064396826	223.4117303931655	889.0524176414997	1702.435031363316	254.8905623345082	924.3391302957295	1872.845134998036	498.3422006738916	831.0113651564054	1811.133629150399	490.0772857472523	868.2828408920547	1852.968436668062	606.7046036961708	823.5255002022527	1795.509459496521	598.1629912985489	861.6500370919617	1928.337271643344	829.2067730524326	1115.840238032315	1779.121316443656	234.3390809930961	1062.825376344912	1682.934474676404	394.2015269228131	1035.706587811768	1706.556204630173	372.2479730390329	1081.31694933624	1728.54181749869	395.2155712306898	1038.286980063599	1864.273029456867	877.8355314719042	1143.01687879836	1749.112000139359	184.5068857573494	1014.728858177899	1725.558123386083	222.6610836322611	1120.549538099362	1770.582094083424	840.9015101663867	1060.776117597915	1823.519665060174	368.3004836569849	1110.616470615042	1815.97059091109	406.9138721746809	1071.722860459231	1890.512457963168	407.6944178833488	1134.264547029872	1882.980358423066	443.7117721039493	1095.125878061372	2049.899582443361	536.8567564201612	1182.292612443757	2006.146972859738	498.2469267445327	1141.216616764547	1976.247106064928	619.8159589649553	1181.864817511953	1931.837294668874	579.8726413555604	1148.521937314279	
2816	18.76666666666667	1900.561971668181	837.7282675733637	873.9404812723858	1540.953420356815	64.41797507669733	991.8059582522675	1571.218851459389	75.51767518448396	946.6870559886784	1561.071046512777	105.3675472296409	991.9435059531855	1816.671291670724	871.2563184686956	862.4787658475727	1757.661462383971	33.00542053120712	1021.560057300932	1712.562343497025	35.18054688022787	914.4431945174082	1757.381521230118	847.2105324801458	972.0091690527554	1669.103415889238	162.7700554591287	922.5552766630934	1638.206067421499	190.8325016790847	952.1795014677416	1701.684526589532	228.7736833621402	889.4554621857121	1678.187376246474	260.3483660583585	925.5267265573766	1857.611118436111	499.5479569522174	830.9006739424949	1795.503918756269	494.4479363762426	868.0010214413651	1843.290084168392	608.7163459385326	823.2122735285818	1785.604823145106	603.1538327559749	861.5650744049976	1927.936990476363	831.9039173556323	1115.520736271913	1808.70334411432	221.2309392980707	1064.762963163482	1699.387911759298	372.7999465524462	1036.334886813132	1724.719707922027	353.0254176252408	1082.010703828467	1744.903246271314	377.5984713565963	1038.683893611308	1862.791697623888	880.2072893100228	1142.351525672583	1782.798381111472	168.6156679545341	1017.274933323526	1755.845377479479	205.3100770650399	1122.511334863877	1770.640938791302	842.7938168011509	1059.130330736371	1842.62918913624	358.7138354521296	1110.576837093877	1831.905809150226	396.3441120520088	1071.388888891378	1906.615613166776	403.3713289477398	1133.116258698032	1896.059231388931	438.4468201464986	1093.740697401255	2059.244886704706	546.4070152483857	1179.781877360191	2017.009207316157	506.1602837291428	1138.477273441628	1982.184051030043	626.2442411453051	1180.138215625798	1939.345183076626	584.5970023876409	1146.675745943715	
